<svg xmlns="http://www.w3.org/2000/svg" xmlns:xlink="http://www.w3.org/1999/xlink" width="200" height="200" class="icon" p-id="1332" t="1635950444566" version="1.1" viewBox="0 0 1024 1024"><defs><style type="text/css"/></defs><path fill="#000" d="M872.528 204.368A34.128 34.128 0 1 0 824.32 156.16L492.368 488.112c-13.28 13.312-13.28 34.88 0 48.208L824.32 867.84a34.128 34.128 0 1 0 48.208-48.208L564.912 512l307.616-307.632z m-341.328 0a34.128 34.128 0 0 0-48.208-48.208L151.04 488.112c-13.28 13.312-13.28 34.88 0 48.208l331.952 331.952a34.128 34.128 0 0 0 48.208-48.224L223.568 512 531.2 204.368z" p-id="1333"/></svg>