<svg xmlns="http://www.w3.org/2000/svg" xmlns:xlink="http://www.w3.org/1999/xlink" width="200" height="200" class="icon" p-id="8434" t="1640417582544" version="1.1" viewBox="0 0 1024 1024"><defs><style type="text/css"/></defs><path fill="#fff" d="M626.1 137.4c-3 0-329.4-0.7-329.4-0.7-52 0-94.1 42.1-94.1 94.1v564.7c0 52 42.1 94.1 94.1 94.1h423.5c52 0 94.1-42.1 94.1-94.1V325L626.1 137.4z m23.6 564H367.3c-13 0-23.5-10.5-23.5-23.5s10.5-23.5 23.5-23.5h282.3c13 0 23.5 10.5 23.5 23.5 0.1 13-10.4 23.5-23.4 23.5z m0-141.1H367.3c-13 0-23.5-10.5-23.5-23.5s10.5-23.5 23.5-23.5h282.3c13 0 23.5 10.5 23.5 23.5 0.1 12.9-10.4 23.5-23.4 23.5zM673.2 325c-26 0-47.1-21.1-47.1-47.1v-94.1L767.3 325h-94.1z" p-id="8435"/></svg>