<svg xmlns="http://www.w3.org/2000/svg" xmlns:xlink="http://www.w3.org/1999/xlink" width="200" height="200" class="icon" p-id="1033" t="1635927903220" version="1.1" viewBox="0 0 1024 1024"><defs><style type="text/css"/></defs><path fill="#000" d="M151.472 204.368A34.128 34.128 0 1 1 199.68 156.16l331.952 331.952c13.28 13.312 13.28 34.88 0 48.208L199.68 867.84a34.128 34.128 0 1 1-48.208-48.208L459.088 512 151.472 204.368z m341.328 0a34.128 34.128 0 0 1 48.208-48.208L872.96 488.112c13.28 13.312 13.28 34.88 0 48.208L541.008 868.272a34.128 34.128 0 0 1-48.208-48.224L800.432 512 492.8 204.368z" p-id="1034"/></svg>